Coordinates
version=1
nRows=24
nColumns=24
inDegrees=yes

Units are S.I. units (second, meters, Newtons, ...)
Angles are in degrees.

endheader
time	pelvis_tilt	pelvis_list	pelvis_rotation	pelvis_tx	pelvis_ty	pelvis_tz	hip_flexion_r	hip_adduction_r	hip_rotation_r	knee_angle_r	ankle_angle_r	subtalar_angle_r	mtp_angle_r	hip_flexion_l	hip_adduction_l	hip_rotation_l	knee_angle_l	ankle_angle_l	subtalar_angle_l	mtp_angle_l	lumbar_extension	lumbar_bending	lumbar_rotation
      3.91500000	    -20.69763246	     -0.29213195	      8.68635752	     -1.81518987	     -0.03659808	     -0.31334903	     47.73525446	     -2.65537557	      4.79094871	     -6.62586645	     -2.70679318	     -7.51099583	     11.14229805	     -0.41227179	      3.27757599	     15.73158585	     -6.51134787	     25.45795460	     19.76029998	    -65.88453587	     11.97859016	     -4.01958331	    -10.05580312
      3.92000000	    -20.88098949	     -0.49573922	      8.86665189	     -1.80697103	     -0.03825618	     -0.31304652	     48.04159785	     -2.60978078	      4.94151902	     -7.13373593	     -2.78859630	     -7.51797018	     11.85540140	     -0.34648804	      3.04108986	     15.82977918	     -7.32896579	     25.48637353	     20.17373252	    -64.71203539	     12.25546292	     -3.88148876	    -10.19637393
      3.92500000	    -20.86581600	     -0.71088668	      9.08143616	     -1.79871535	     -0.03958314	     -0.31278945	     48.11388650	     -2.53958788	      5.09507631	     -7.76223102	     -2.94491249	     -7.65336487	     11.99145944	     -0.51663713	      2.75967436	     16.21647920	     -8.08725085	     25.53722879	     20.28246305	    -64.56137859	     12.30111702	     -3.70459028	    -10.39709653
      3.93000000	    -20.92775779	     -0.95918335	      9.23265355	     -1.79023893	     -0.04099235	     -0.31244993	     48.30073086	     -2.38640828	      5.14459453	     -8.54314770	     -3.32070413	     -7.87773918	     12.25940024	     -0.58938227	      2.45369860	     16.45765535	     -8.88527026	     25.54052027	     20.47338958	    -64.29577827	     12.46832716	     -3.49161540	    -10.53362589
      3.93500000	    -20.97176573	     -1.10699903	      9.29396617	     -1.78173974	     -0.04242733	     -0.31189487	     48.49657528	     -2.22098229	      5.29835887	     -9.38405112	     -4.23330248	     -8.59616696	     13.81430477	     -0.58048879	      2.25324652	     16.08395245	     -9.89861164	     25.42651488	     21.21310943	    -63.05969560	     12.59452934	     -3.36189644	    -10.57630676
      3.94000000	    -20.97119907	     -1.34843931	      9.32077421	     -1.77300219	     -0.04370600	     -0.31151546	     48.64541678	     -1.97046699	      5.09687861	    -10.27548673	     -5.45970049	     -9.28423023	     15.66165586	     -0.72012119	      1.96094493	     16.24270211	    -10.72242927	     25.08419292	     21.31967386	    -61.74237976	     12.71781652	     -3.09130525	    -10.59072783
      3.94500000	    -20.98315242	     -1.56991844	      9.32981218	     -1.76422661	     -0.04491007	     -0.31109054	     48.89803113	     -1.71588800	      4.65642184	    -11.47153796	     -6.41788425	     -9.51994575	     15.64027192	     -0.82190050	      1.69528678	     16.40224674	    -11.58962267	     24.84691265	     21.40424262	    -61.66696222	     12.84800269	     -2.83804333	    -10.57855552
      3.95000000	    -21.00616947	     -1.79772393	      9.23612131	     -1.75541789	     -0.04612777	     -0.31034860	     49.16097940	     -1.35208525	      4.36385767	    -12.62124494	     -8.04647514	    -10.49738247	     16.24322339	     -0.74959703	      1.41034529	     15.80424343	    -12.74698280	     24.59905426	     22.10756617	    -60.91096702	     12.98430986	     -2.57574661	    -10.48797405
      3.95500000	    -21.05489705	     -2.01575404	      9.22791880	     -1.74666911	     -0.04716547	     -0.30985719	     49.48707875	     -1.10240938	      3.75701137	    -13.88662636	     -9.65204414	    -11.23142604	     16.24572613	     -0.67023219	      1.17465391	     15.73083728	    -13.83271705	     24.14911601	     22.33984090	    -60.50356313	     13.13161712	     -2.32972344	    -10.51902534
      3.96000000	    -21.11469427	     -2.23787972	      9.05268722	     -1.73778549	     -0.04820497	     -0.30913972	     49.86029733	     -0.72372797	      3.21951080	    -15.20607801	    -11.35451632	    -12.07914749	     16.02879581	     -0.54739708	      0.92339163	     15.28212900	    -14.98864653	     23.62770178	     22.73655052	    -59.97244497	     13.30264919	     -2.03687403	    -10.34704626
      3.96500000	    -21.16889988	     -2.43626993	      8.83332048	     -1.72892070	     -0.04913232	     -0.30836430	     50.24469926	     -0.33793899	      2.71950315	    -16.57471790	    -12.94671659	    -12.89259501	     15.45327919	     -0.37617107	      0.69549939	     14.69266134	    -16.22253463	     22.94918919	     23.18800541	    -59.28984103	     13.45420721	     -1.75416525	    -10.13747502
      3.97000000	    -21.13309082	     -2.73737607	      8.57657136	     -1.71992632	     -0.04983261	     -0.30757997	     50.53856271	      0.17016046	      2.17651663	    -18.08755978	    -13.68267193	    -13.06892695	     12.39078480	     -0.27133067	      0.33583869	     14.02972746	    -17.44464251	     21.54243076	     23.71926948	    -55.04276045	     13.52997027	     -1.33631607	     -9.90713316
      3.97500000	    -21.31235335	     -2.87142544	      8.23002227	     -1.71105202	     -0.05070921	     -0.30672142	     51.03591307	      0.58272479	      1.98453743	    -19.45032872	    -14.86172019	    -13.80243211	     11.67592403	      0.10393885	      0.20677055	     13.29749734	    -18.78137403	     20.58233048	     23.99597755	    -54.78329021	     13.79678741	     -1.09278068	     -9.54389784
      3.98000000	    -21.26337715	     -3.10102703	      7.87652393	     -1.70209185	     -0.05118368	     -0.30563243	     51.29934914	      1.16812161	      1.81360297	    -21.08217027	    -14.40528425	    -13.48543709	      6.42547400	      0.30087094	     -0.12931088	     12.26312389	    -20.11012078	     18.77223679	     24.66540077	    -50.47087585	     13.82049999	     -0.74348327	     -9.23084987
      3.98500000	    -21.23057086	     -3.36392486	      7.53179885	     -1.69311641	     -0.05154557	     -0.30463238	     51.48961243	      1.76444379	      1.67674381	    -22.48978752	    -14.11046012	    -13.50732786	      3.06675757	      0.56840196	     -0.50592799	     11.19069666	    -21.43681838	     16.36514596	     25.28445818	    -44.14367399	     13.86381745	     -0.35634226	     -8.93636562
      3.99000000	    -21.28035175	     -3.55711617	      7.17021557	     -1.68420281	     -0.05189917	     -0.30353029	     51.72354425	      2.34035346	      1.72593080	    -23.84059748	    -13.59610291	    -13.54420424	      0.32772230	      0.95186880	     -0.81912279	     10.09204769	    -22.69234867	     13.22959029	     25.81467309	    -35.51048370	     13.97715342	     -0.06333211	     -8.63575819
      3.99500000	    -21.25969165	     -3.79846077	      6.78407602	     -1.67518564	     -0.05202914	     -0.30243430	     51.78578239	      2.99574880	      1.80163637	    -25.03338935	    -12.97821584	    -13.61005867	     -1.50670965	      1.28406865	     -1.23104586	      8.83146751	    -23.83726329	      9.50369294	     26.21271237	    -25.46075172	     14.03212076	      0.29871675	     -8.30922323
      4.00000000	    -21.27816189	     -4.09079957	      6.39608078	     -1.66617157	     -0.05212086	     -0.30129733	     51.82178987	      3.71259557	      1.92761127	    -26.13032092	    -12.20637849	    -13.64983954	     -2.96125232	      1.72560379	     -1.72590796	      7.55771795	    -25.00893540	      5.74515957	     26.47542622	    -16.43246728	     14.13248827	      0.70214772	     -8.00396678
      4.00500000	    -21.26956426	     -4.24716002	      5.95623690	     -1.65731170	     -0.05208063	     -0.30003985	     51.77925707	      4.40397887	      2.26072870	    -27.16717807	    -11.36797220	    -13.73963588	     -3.96206418	      2.15835730	     -2.09077839	      6.27851246	    -26.15365131	      1.83954568	     26.43370460	     -8.62007437	     14.15863112	      0.97088882	     -7.61157992
      4.01000000	    -21.16723043	     -4.42936282	      5.51474688	     -1.64846125	     -0.05182465	     -0.29877483	     51.54395786	      5.15074780	      2.65562159	    -28.06918513	    -10.46317920	    -13.85031472	     -4.74463627	      2.52398523	     -2.49436494	      5.14281398	    -27.32615945	     -1.91588691	     26.17016512	     -2.81094407	     14.08451381	      1.27243736	     -7.22731126
      4.01500000	    -21.08988529	     -4.59540958	      5.12572392	     -1.63980939	     -0.05152691	     -0.29759029	     51.30383708	      5.82278744	      2.91017811	    -28.90985915	     -9.50375401	    -13.89867636	     -5.29082898	      3.02401314	     -2.87710856	      4.12688980	    -28.63819680	     -5.51693514	     25.82665104	      1.15171930	     14.01193470	      1.53499991	     -6.86616098
      4.02000000	    -21.01767528	     -4.78629879	      4.68994058	     -1.63115040	     -0.05116572	     -0.29637821	     50.97034057	      6.56045473	      3.25280231	    -29.56326943	     -8.75343941	    -14.14255409	     -5.18021839	      3.59319772	     -3.26894975	      3.25848512	    -30.15866854	     -8.40674702	     25.43761723	      0.96606024	     13.95464710	      1.83259250	     -6.45960936
      4.02500000	    -20.94506019	     -4.97393020	      4.28678293	     -1.62264829	     -0.05068046	     -0.29525204	     50.57203303	      7.26103892	      3.56965166	    -30.10213085	     -8.01813054	    -14.37901304	     -5.14200021	      4.22317483	     -3.63176320	      2.53437903	    -31.67822081	    -11.39579787	     24.77934030	      0.72120762	     13.87945863	      2.11902655	     -6.06966134
      4.03000000	    -20.86766284	     -5.16517109	      3.92529812	     -1.61428379	     -0.05010342	     -0.29415634	     50.10946717	      7.92435542	      3.84258069	    -30.53098694	     -7.29201871	    -14.60755292	     -5.11068236	      4.91879446	     -3.98726954	      1.90472600	    -33.22925935	    -14.31869000	     23.92652539	      0.15563153	     13.78736265	      2.38912698	     -5.71959223
